PathFileType	4	(X/Y/Z)	D:\Share\Shared_Data\Ergonomics\Sit To Stand Pertubation\S1\Perturbed_NoHarness.trc
DataRate	CameraRate	NumFrames	NumMarkers	Units	OrigDataRate	OrigDataStartFrame	OrigNumFrames	
100	100	9	18	m	100	3358	231
Frame#	Time	L_ASIS			R_ASIS			R_Pelvis			V_Sacral			L_Pelvis			Clavical			R_Acromium			L_Acromium			Sternum			Torso			R_Thigh_Med			R_Thigh_Lat			R_Thigh			R_Shank_Med			R_Shank_Lat			R_Shank			R_Heel			R_Toe			
		X1	Y1	Z1	X2	Y2	Z2	X3	Y3	Z3	X4	Y4	Z4	X5	Y5	Z5	X6	Y6	Z6	X7	Y7	Z7	X8	Y8	Z8	X9	Y9	Z9	X10	Y10	Z10	X11	Y11	Z11	X12	Y12	Z12	X13	Y13	Z13	X14	Y14	Z14	X15	Y15	Z15	X16	Y16	Z16	X17	Y17	Z17	X18	Y18	Z18	

3358	33.57	0.15397729	0.61164789	-0.08715847	0.051147285	0.64568909	0.1387606	0.12938017	0.60748376	0.11366209	-0.069681969	0.61698004	0.012093721	0.060391975	0.64399609	-0.12508139	0.3831207	0.8260686	0.0085454779	0.38398318	0.93174255	0.14261635	0.32337695	0.94005902	-0.18002757	0.37071265	0.85313611	0.10423923	0.37784213	0.84218512	-0.042713821	0.36478592	0.40749872	0.036057739	0.36737054	0.42959171	0.15636224	0.24679536	0.55343585	0.10804687	0.34552048	0.092763847	0.10456613	0.32181656	0.099799187	0.18403838	0.3520759	0.30990878	0.18219484	0.27222516	0.03938681	0.13906581	0.47707092	0.052102779	0.14795789
3359	33.58	0.15869281	0.61152618	-0.087096985	0.055440891	0.64592163	0.13851865	0.13360216	0.60774567	0.1138089	-0.065216797	0.61776038	0.011771719	0.065281364	0.64417255	-0.12516731	0.38913095	0.82473169	0.0086003132	0.39035541	0.93063763	0.14249016	0.32995712	0.93898602	-0.18004738	0.37663031	0.85191827	0.10422742	0.38374146	0.84085626	-0.042514217	0.36823117	0.40681668	0.035496334	0.37102444	0.42891876	0.15587148	0.25097697	0.55336957	0.10728717	0.34600659	0.092488029	0.10434117	0.3223923	0.09975338	0.18386377	0.35450775	0.30950107	0.18171457	0.27228485	0.038810787	0.13849146	0.47712445	0.051902618	0.14802075
3360	33.59	0.16333066	0.61159802	-0.087127739	0.059716732	0.6462619	0.13830388	0.1378185	0.60818317	0.11392915	-0.060749722	0.61860229	0.011489079	0.070086662	0.6444657	-0.12528316	0.39469485	0.82387451	0.0086614647	0.39629443	0.92997375	0.14247403	0.33608447	0.93824023	-0.1801185	0.38218698	0.85115875	0.10424489	0.38929517	0.83998865	-0.042337303	0.37171204	0.40610727	0.034927788	0.37473547	0.42822858	0.15537621	0.25526312	0.55330908	0.10654707	0.34648685	0.092216026	0.10411444	0.32296655	0.09971402	0.18368619	0.3569671	0.30908054	0.18123553	0.27234076	0.03819318	0.13787433	0.47717731	0.051666946	0.14806685
3361	33.6	0.1678887	0.61189124	-0.087257034	0.063979038	0.64675385	0.13812302	0.14202849	0.60881714	0.11402291	-0.056283611	0.61956079	0.011247476	0.07481237	0.644914	-0.12542209	0.3998338	0.82352197	0.0087260513	0.40181238	0.92977527	0.14257298	0.34176431	0.93785986	-0.18023822	0.38739352	0.85088428	0.10428571	0.39451462	0.83961017	-0.042189476	0.37520184	0.40537711	0.034355934	0.37847482	0.42752866	0.154879	0.25963528	0.553271	0.10583973	0.34695587	0.091951302	0.10388833	0.32353363	0.099682442	0.18350816	0.35943665	0.30865161	0.18076199	0.27239264	0.037552612	0.137233	0.47723065	0.051398338	0.14809497
3362	33.61	0.17236551	0.61243384	-0.087487373	0.068230789	0.6474386	0.1379814	0.14623085	0.60966766	0.11409042	-0.05182151	0.62068756	0.011047259	0.079463516	0.64555426	-0.12557758	0.40457785	0.8236936	0.0087917299	0.40692429	0.93006311	0.14278836	0.34700607	0.9378797	-0.18040251	0.39226495	0.85111725	0.10434405	0.39941544	0.83974493	-0.042075935	0.37867496	0.40463391	0.033784737	0.3822135	0.4268269	0.15438251	0.2640737	0.55327271	0.1051759	0.34740851	0.091696922	0.10366512	0.32408823	0.099659477	0.18333211	0.36189819	0.30821854	0.18029784	0.27244049	0.036910149	0.136588	0.47728574	0.051100323	0.14810448
3363	33.62	0.17676059	0.61325208	-0.087815994	0.072473434	0.64835272	0.1378826	0.15042354	0.61075244	0.11413202	-0.047366787	0.62202948	0.01088763	0.084045135	0.64642004	-0.12574387	0.40896399	0.8244035	0.0088567162	0.41164734	0.93085474	0.14311702	0.35182281	0.93832953	-0.18060658	0.39681909	0.85187573	0.10441448	0.40401605	0.84041223	-0.042000477	0.38210678	0.40388571	0.033218147	0.38592285	0.4261315	0.15388925	0.26855847	0.55333197	0.10456354	0.34783987	0.091455467	0.10344696	0.32462521	0.099645447	0.18316019	0.36433325	0.30778534	0.17984666	0.27248471	0.036287533	0.13596016	0.47734341	0.05077739	0.14809554
3364	33.63	0.18107423	0.61436884	-0.088233788	0.076706772	0.6495271	0.13782838	0.15460393	0.61208704	0.11414806	-0.042923092	0.6236272	0.010766835	0.088561775	0.64754114	-0.12591612	0.41303302	0.82565942	0.0089197245	0.41599985	0.93216309	0.14355125	0.35623053	0.93923364	-0.18084491	0.40107556	0.85317279	0.10449225	0.4083364	0.84162683	-0.041965248	0.38547449	0.40314108	0.032660049	0.38957559	0.42545035	0.15340157	0.27306998	0.55346613	0.10400769	0.3482457	0.091228889	0.10323564	0.32514005	0.099640198	0.18299414	0.36672379	0.30735556	0.17941154	0.27252573	0.035705303	0.13536917	0.47740436	0.050434856	0.14806895
3365	33.64	0.18530798	0.61580231	-0.088724403	0.080929153	0.65098553	0.13781879	0.15876891	0.61368323	0.1141389	-0.038494286	0.62551331	0.010682335	0.093017303	0.64894257	-0.12609063	0.41682687	0.82746283	0.0089798174	0.42000009	0.93399719	0.1440789	0.36024753	0.94061047	-0.18111166	0.40505472	0.85501672	0.10457342	0.41239667	0.84339764	-0.041970707	0.38875729	0.40240829	0.032114101	0.39314679	0.42479092	0.15292145	0.27759003	0.55369159	0.10351089	0.34862253	0.09101857	0.10303252	0.32562894	0.099643166	0.18283528	0.36905273	0.30693234	0.17899484	0.27256409	0.035181084	0.13483176	0.47746878	0.050078476	0.14802603
3366	33.65	0.18946463	0.617565	-0.089264069	0.085137825	0.6527453	0.13785233	0.16291519	0.61554962	0.11410487	-0.034084148	0.62771295	0.010630934	0.097414825	0.65064429	-0.12626488	0.42038602	0.8298092	0.009036253	0.4236658	0.93636169	0.14468385	0.36389377	0.94247162	-0.181401	0.40877634	0.85741046	0.10465507	0.41621594	0.84572864	-0.042015617	0.39193652	0.40169534	0.03158367	0.39661423	0.42415952	0.15245049	0.28210254	0.55402307	0.10307359	0.3489678	0.090825279	0.10283845	0.32608878	0.099653442	0.18268427	0.3713049	0.30651834	0.17859828	0.27260028	0.034728256	0.13436072	0.47753662	0.049713997	0.14796854
